<svg xmlns="http://www.w3.org/2000/svg" viewBox="0 0 300 93"><defs><style>.a{fill:#fff;}</style></defs><title>logo_ft-primary-white_300x93</title><path class="a" d="M26.53 43.24h18v6.07h-11.1V84.9h-6.9zM66.88 84.9H49.32V43.24h6.9v35.47h10.66zM81.64 42.76h.47c6.31 0 10.48 2.5 10.48 8.81v25c0 6.3-4.17 8.8-10.48 8.8h-.47c-6.31 0-10.48-2.5-10.48-8.8v-25c0-6.37 4.17-8.81 10.48-8.81zm.23 36.54c2.27 0 3.81-.83 3.81-3.81V52.64c0-3-1.54-3.81-3.81-3.81s-3.8.83-3.8 3.81v22.85c0 2.98 1.54 3.81 3.8 3.81zM114.79 84.9l-5.3-16.61H106V84.9h-6.87V43.24h10.78c6.3 0 10.47 2.5 10.47 8.8v7.44c0 4-1.67 6.49-4.52 7.74l6 17.68zM106 62.34h3.63c2.26 0 3.81-.83 3.81-3.81v-5.41c0-3-1.55-3.81-3.81-3.81H106zM127.05 84.9V43.24H134V84.9zM162.1 52v24.09c0 6.31-4.16 8.81-10.47 8.81H141V43.24h10.66c6.28 0 10.44 2.5 10.44 8.76zm-10.71-2.73h-3.51v29.56h3.51c2.26 0 3.81-.84 3.81-3.81v-21.9c0-2.98-1.55-3.81-3.81-3.81zM181.56 75.61H174l-1.49 9.29h-6.67l7.74-41.66h8.69l7.85 41.66h-7zm-.89-5.71l-2.92-18.51-2.91 18.51zM222.57 49.31h-7V84.9h-6.9V49.31h-7v-6.07h20.83zM227 84.9V43.24h18.27v6.07h-11.39v11.42h9.52v6.07h-9.52v12h11.54v6.1zM272 76.57c0 6.42-4.17 8.8-10.48 8.8h-.12c-6.3 0-10.47-2.32-10.47-8.8v-25c0-6.19 4.17-8.81 10.47-8.81h.12c6.31 0 10.48 2.62 10.48 8.81v7.62h-6.91v-6.55c0-2.92-1.42-3.81-3.63-3.81s-3.63.89-3.63 3.81v22.85c0 2.92 1.43 3.81 3.63 3.81s3.63-.89 3.63-3.81v-7.55H272zM285.18 43.24v17.38h7.92V43.24h6.9V84.9h-6.9V66.8h-7.92v18.1h-6.9V43.24z"/><path class="a" d="M.19 36.65A19.89 19.89 0 0 0 0 39.33c0 16.2 20 29.33 44.64 29.33l-2-6.62C20.43 62 2.2 50.89.19 36.65z"/><path class="a" d="M97.38 22l-10.06-.82 3-9.64-6.92 7.32-5.68-8.35 1.37 9.55C71.9 12.62 58.7 7.63 43.62 7.63 20.83 7.63 2.34 19 2.34 33.05c0 9.31 8.14 17.45 20.27 21.87-10.45-4.45-17.3-11.87-17.3-20.29C5.31 21 23.24 10 45.35 10c13.52 0 25.48 4.13 32.73 10.45l-8.61-.63a59.14 59.14 0 0 1 8.33 5.05l-6.88 7.38 9.42-3.62 1.49 10 3-9.62L93.61 34 88 25.64z"/></svg>