<svg id="Layer_1" xmlns="http://www.w3.org/2000/svg" viewBox="0 0 300 85"><style>.st0{fill:#770000;} .st1{fill:#AD976E;} .st2{fill:#AB946C;}</style><title>logo_ft-primary-color_300x85</title><path class="st0" d="M26.5 39.2h18v6.1H33.4v35.6h-6.9V39.2zM66.9 80.9H49.3V39.2h6.9v35.5h10.7v6.2zM81.6 38.8h.5c6.3 0 10.5 2.5 10.5 8.8v25c0 6.3-4.2 8.8-10.5 8.8h-.5c-6.3 0-10.5-2.5-10.5-8.8v-25c.1-6.4 4.2-8.8 10.5-8.8zm.3 36.5c2.3 0 3.8-.8 3.8-3.8V48.6c0-3-1.5-3.8-3.8-3.8s-3.8.8-3.8 3.8v22.8c0 3.1 1.5 3.9 3.8 3.9zM114.8 80.9l-5.3-16.6H106v16.6h-6.9V39.2h10.8c6.3 0 10.5 2.5 10.5 8.8v7.4c0 4-1.7 6.5-4.5 7.7l6 17.7h-7.1zM106 58.3h3.6c2.3 0 3.8-.8 3.8-3.8v-5.4c0-3-1.6-3.8-3.8-3.8H106v13zM127.1 80.9V39.2h6.9v41.7h-6.9zM162.1 48v24.1c0 6.3-4.2 8.8-10.5 8.8H141V39.2h10.7c6.2 0 10.4 2.5 10.4 8.8zm-10.7-2.7h-3.5v29.6h3.5c2.3 0 3.8-.8 3.8-3.8v-22c0-3-1.6-3.8-3.8-3.8zM181.6 71.6H174l-1.5 9.3h-6.7l7.7-41.7h8.7l7.9 41.7h-7l-1.5-9.3zm-.9-5.7l-2.9-18.5-2.9 18.5h5.8zM222.6 45.3h-7v35.6h-6.9V45.3h-7v-6.1h20.8l.1 6.1zM227 80.9V39.2h18.3v6.1h-11.4v11.4h9.5v6.1h-9.5v12h11.5v6.1H227zM272 72.6c0 6.4-4.2 8.8-10.5 8.8h-.1c-6.3 0-10.5-2.3-10.5-8.8v-25c0-6.2 4.2-8.8 10.5-8.8h.1c6.3 0 10.5 2.6 10.5 8.8v7.6h-6.9v-6.5c0-2.9-1.4-3.8-3.6-3.8s-3.6.9-3.6 3.8v22.8c0 2.9 1.4 3.8 3.6 3.8s3.6-.9 3.6-3.8V64h6.9v8.6zM285.2 39.2v17.4h7.9V39.2h6.9v41.7h-6.9V62.8h-7.9v18.1h-6.9V39.2h6.9z"/><path class="st1" d="M.2 32.7c-.1.8-.2 1.7-.2 2.6 0 16.2 20 29.3 44.6 29.3l-2-6.6C20.4 58 2.2 46.9.2 32.7z"/><path class="st2" d="M97.4 18l-10.1-.8 3-9.6-6.9 7.3-5.7-8.3 1.4 9.6C71.9 8.6 58.7 3.6 43.6 3.6 20.8 3.6 2.3 15 2.3 29c0 9.3 8.1 17.5 20.3 21.9C12.2 46.5 5.3 39 5.3 30.6 5.3 17 23.2 6 45.3 6 58.8 6 70.8 10.1 78 16.4l-8.6-.6c2.9 1.5 5.7 3.1 8.3 5.1l-6.9 7.4 9.4-3.6 1.5 10 3-9.6 8.8 5-5.5-8.5 9.4-3.6z"/></svg>